# xmcd
#
# Track frame offsets:
#	150
#	12595
#	22005
#	34042
#	43677
#	55942
#	68442
#	79017
#	90662
#	101912
#	111175
#	124612
#
# Disc length: 1804 seconds
#
# Revision: 1
# Processed by: cddbd v1.4PL0 Copyright (c) Steve Scherf et al.
# Submitted via: audiograbber 1.82.01
#
DISCID=97070a0c
DTITLE=Various Artist - Soul Meeting Saturday Night - Hootenanny Style
DYEAR=1900
DGENRE=Blues
TTITLE0=Birdlegs and Pauline - Spring
TTITLE1=Roscoe Gordon - Just A Little Bit
TTITLE2=Jimmy Reed - Honest I Do
TTITLE3=John Lee Hooker - Dimples
TTITLE4=Pricilla Bowman - Hands Off
TTITLE5=Jimmy Reed - Big Boss Man
TTITLE6=Jimmy Reed - Baby What You Want Me To Do
TTITLE7=Roscoe Gordon - No More Doggin'
TTITLE8=John Lee Hooker - Little Wheel
TTITLE9=Gene Allison - You Can Make It If You Try
TTITLE10=Memphis Slim - Messin' Around
TTITLE11=John Lee Hooker - Boom Boom
EXTD=Japanese Import from Vee-Jay Records, released 1987, original date ?
EXTT0=
EXTT1=
EXTT2=
EXTT3=
EXTT4=
EXTT5=
EXTT6=
EXTT7=
EXTT8=
EXTT9=
EXTT10=
EXTT11=
PLAYORDER=
